<?xml version="1.0" standalone="no"?>
<!DOCTYPE svg PUBLIC "-//W3C//DTD SVG 20010904//EN"
 "http://www.w3.org/TR/2001/REC-SVG-20010904/DTD/svg10.dtd">
<svg version="1.0" xmlns="http://www.w3.org/2000/svg"
 width="920.000000pt" height="771.000000pt" viewBox="0 0 920.000000 771.000000"
 preserveAspectRatio="xMidYMid meet">

<g transform="translate(0.000000,771.000000) scale(0.100000,-0.100000)"
fill="#000000" stroke="none">
<path d="M1400 6515 l0 -785 203 -2 202 -3 2 -2027 c2 -1612 0 -2028 -10
-2029 -6 -1 -96 0 -199 1 l-187 2 2 -791 2 -791 1228 0 1227 0 0 792 0 791
-163 -7 c-90 -3 -178 -3 -195 0 l-32 7 0 1266 1 1266 36 -100 c19 -55 64 -181
98 -280 34 -99 75 -211 90 -250 15 -38 37 -101 50 -140 20 -62 227 -647 457
-1295 44 -124 109 -308 145 -410 36 -102 86 -241 110 -310 25 -69 60 -168 78
-220 32 -94 33 -95 45 -65 31 79 111 294 395 1065 46 124 120 324 164 445 45
121 114 306 152 410 141 380 191 516 308 830 l120 320 3 -1255 c2 -690 2
-1262 0 -1270 -3 -13 -31 -14 -202 -11 l-199 3 1 -791 1 -791 1234 0 1233 0
-2 788 -3 787 -135 -3 c-74 -2 -163 0 -197 3 l-63 7 0 2029 0 2029 200 0 200
0 -2 783 -3 782 -1136 3 c-1111 2 -1137 2 -1161 -17 -13 -11 -30 -39 -37 -63
-6 -24 -32 -99 -57 -168 -63 -172 -100 -277 -115 -330 -8 -25 -23 -65 -35 -90
-12 -25 -33 -81 -47 -125 -14 -44 -46 -138 -72 -210 -55 -149 -122 -338 -169
-475 -18 -52 -47 -133 -65 -180 -40 -107 -48 -131 -73 -205 -11 -33 -33 -91
-48 -130 -34 -86 -110 -309 -110 -324 0 -14 -50 -124 -55 -119 -2 1 -37 100
-78 218 -42 118 -191 541 -332 940 -141 399 -286 808 -322 910 -35 102 -79
226 -96 275 l-32 90 -1177 3 -1178 2 0 -785z"/>
</g>
</svg>
